<svg xmlns="http://www.w3.org/2000/svg" width="20" height="26" viewBox="0 0 24 30" fill="none">
  <path d="M14.625 2.5498e-08C15.4802 -0.000105033 16.3035 0.324443 16.9286 0.908054C17.5537 1.49166 17.934 2.29082 17.9925 3.144L18 3.375C18 3.2475 17.9925 3.123 17.979 3H20.625C21.0682 3 21.5071 3.0873 21.9166 3.25691C22.326 3.42652 22.6981 3.67512 23.0115 3.98851C23.3249 4.30191 23.5735 4.67397 23.7431 5.08344C23.9127 5.49292 24 5.93179 24 6.375V26.625C24 27.0682 23.9127 27.5071 23.7431 27.9166C23.5735 28.326 23.3249 28.6981 23.0115 29.0115C22.6981 29.3249 22.326 29.5735 21.9166 29.7431C21.5071 29.9127 21.0682 30 20.625 30H3.375C2.47989 30 1.62145 29.6444 0.988515 29.0115C0.35558 28.3786 0 27.5201 0 26.625V6.375C0 5.47989 0.35558 4.62145 0.988515 3.98851C1.62145 3.35558 2.47989 3 3.375 3H6.021C6.0105 3.087 6.006 3.1755 6.0015 3.264L6 3.375C6 2.47989 6.35558 1.62145 6.98851 0.988515C7.62145 0.355579 8.47989 2.5498e-08 9.375 2.5498e-08H14.625ZM14.625 6.75H9.375C8.81002 6.75016 8.25405 6.60835 7.75816 6.33761C7.26227 6.06686 6.84236 5.67585 6.537 5.2005L6.5685 5.25H3.375C3.07663 5.25 2.79048 5.36853 2.5795 5.5795C2.36853 5.79048 2.25 6.07663 2.25 6.375V26.625C2.25 27.246 2.754 27.75 3.375 27.75H20.625C20.9234 27.75 21.2095 27.6315 21.4205 27.4205C21.6315 27.2095 21.75 26.9234 21.75 26.625V6.375C21.75 6.07663 21.6315 5.79048 21.4205 5.5795C21.2095 5.36853 20.9234 5.25 20.625 5.25H17.4315L17.463 5.2005C17.1576 5.67585 16.7377 6.06686 16.2418 6.33761C15.746 6.60835 15.19 6.75016 14.625 6.75ZM14.625 2.25H9.375C9.07663 2.25 8.79048 2.36853 8.57951 2.5795C8.36853 2.79048 8.25 3.07663 8.25 3.375C8.25 3.67337 8.36853 3.95952 8.57951 4.1705C8.79048 4.38147 9.07663 4.5 9.375 4.5H14.625C14.9234 4.5 15.2095 4.38147 15.4205 4.1705C15.6315 3.95952 15.75 3.67337 15.75 3.375C15.75 3.07663 15.6315 2.79048 15.4205 2.5795C15.2095 2.36853 14.9234 2.25 14.625 2.25ZM6 18.75H12C12.2984 18.75 12.5845 18.6315 12.7955 18.4205C13.0065 18.2095 13.125 17.9234 13.125 17.625C13.125 17.3266 13.0065 17.0405 12.7955 16.8295C12.5845 16.6185 12.2984 16.5 12 16.5H6C5.70163 16.5 5.41548 16.6185 5.2045 16.8295C4.99353 17.0405 4.875 17.3266 4.875 17.625C4.875 17.9234 4.99353 18.2095 5.2045 18.4205C5.41548 18.6315 5.70163 18.75 6 18.75ZM6 12.75H18C18.2984 12.75 18.5845 12.6315 18.7955 12.4205C19.0065 12.2095 19.125 11.9234 19.125 11.625C19.125 11.3266 19.0065 11.0405 18.7955 10.8295C18.5845 10.6185 18.2984 10.5 18 10.5H6C5.70163 10.5 5.41548 10.6185 5.2045 10.8295C4.99353 11.0405 4.875 11.3266 4.875 11.625C4.875 11.9234 4.99353 12.2095 5.2045 12.4205C5.41548 12.6315 5.70163 12.75 6 12.75ZM6 24.75H15C15.2984 24.75 15.5845 24.6315 15.7955 24.4205C16.0065 24.2095 16.125 23.9234 16.125 23.625C16.125 23.3266 16.0065 23.0405 15.7955 22.8295C15.5845 22.6185 15.2984 22.5 15 22.5H6C5.70163 22.5 5.41548 22.6185 5.2045 22.8295C4.99353 23.0405 4.875 23.3266 4.875 23.625C4.875 23.9234 4.99353 24.2095 5.2045 24.4205C5.41548 24.6315 5.70163 24.75 6 24.75Z" fill="#939393"/>
</svg>