<svg xmlns="http://www.w3.org/2000/svg" width="26" height="26" viewBox="0 0 30 30" fill="none">
  <path d="M15 0C23.2845 0 30 6.71516 30 14.9992C30 23.2833 23.2845 29.9985 15 29.9985C12.606 30.0018 10.2462 29.4298 8.11951 28.3306L2.38051 29.931C2.06032 30.0203 1.72214 30.023 1.4006 29.9386C1.07906 29.8542 0.785735 29.6859 0.550677 29.4508C0.315618 29.2158 0.147277 28.9225 0.0629032 28.601C-0.0214709 28.2794 -0.0188447 27.9413 0.0705125 27.6211L1.67251 21.8869C0.57054 19.7584 -0.0031032 17.396 1.26254e-05 14.9992C1.26254e-05 6.71516 6.71551 0 15 0ZM15 2.24989C11.6185 2.24989 8.37549 3.59312 5.9844 5.98409C3.59331 8.37506 2.25001 11.6179 2.25001 14.9992C2.25001 17.2041 2.80951 19.3235 3.85951 21.2044L4.08451 21.6094L2.41651 27.5851L8.39701 25.9172L8.80201 26.1422C10.5036 27.0882 12.3992 27.632 14.3435 27.7318C16.2878 27.8317 18.2292 27.485 20.0188 26.7183C21.8083 25.9516 23.3985 24.7853 24.6674 23.3088C25.9363 21.8324 26.8502 20.0849 27.3391 18.2005C27.8279 16.3161 27.8787 14.3447 27.4876 12.4377C27.0964 10.5306 26.2737 8.73839 25.0825 7.19854C23.8913 5.65868 22.3632 4.41206 20.6155 3.55426C18.8678 2.69646 16.9469 2.25026 15 2.24989ZM10.125 16.4992H16.872C17.157 16.4993 17.4314 16.6075 17.6397 16.8021C17.848 16.9967 17.9746 17.2631 17.994 17.5474C18.0135 17.8318 17.9242 18.1129 17.7444 18.334C17.5645 18.5551 17.3074 18.6997 17.025 18.7386L16.872 18.7491H10.125C9.83997 18.749 9.5656 18.6407 9.35732 18.4461C9.14905 18.2515 9.0224 17.9851 9.00297 17.7008C8.98354 17.4164 9.07278 17.1353 9.25266 16.9142C9.43253 16.6931 9.68963 16.5485 9.97201 16.5097L10.125 16.4992ZM10.125 11.2494H19.8825C20.1674 11.2499 20.4415 11.3584 20.6495 11.5531C20.8575 11.7478 20.9839 12.0142 21.0031 12.2984C21.0223 12.5827 20.933 12.8636 20.7531 13.0846C20.5733 13.3055 20.3163 13.45 20.034 13.4888L19.8825 13.4993H10.125C9.83997 13.4992 9.5656 13.391 9.35732 13.1964C9.14905 13.0018 9.0224 12.7354 9.00297 12.4511C8.98354 12.1667 9.07278 11.8856 9.25266 11.6645C9.43253 11.4434 9.68963 11.2988 9.97201 11.2599L10.125 11.2494Z" fill="#15BE77"/>
</svg>
